<?xml version="1.0" encoding="UTF-8"?>
<svg width="1132px" height="121px" viewBox="0 0 1132 121" version="1.1" xmlns="http://www.w3.org/2000/svg" xmlns:xlink="http://www.w3.org/1999/xlink">
    <!-- Generator: Sketch 52.2 (67145) - http://www.bohemiancoding.com/sketch -->
    <title>HBIKE_blk_white_highres</title>
    <desc>Created with Sketch.</desc>
    <g id="HBIKE_blk_white_highres" stroke="none" stroke-width="1" fill="none" fill-rule="evenodd">
        <g id="HBIKE" fill="#000000">
            <g id="Header">
                <g>
                    <polygon id="Fill-1" points="77.4630899 0 77.4630899 47.1367884 24.0693662 47.1367884 24.0693662 0 0 0 0 120 24.0693662 120 24.0693662 69.6246689 77.4630899 69.6246689 77.4630899 120 101.703855 120 101.703855 0"></polygon>
                    <polygon id="Fill-2" points="170 0 170 120 249.102999 120 249.102999 97.8719576 193.797194 97.8719576 193.797194 69.9865061 247.929806 69.9865061 247.929806 48.0363836 193.797194 48.0363836 193.797194 21.9501224 249.102999 21.9501224 249.102999 0"></polygon>
                    <polygon id="Fill-3" points="317 0 317 120 384.80257 120 384.80257 97.5101204 339.706878 97.5101204 339.706878 0"></polygon>
                    <polygon id="Fill-6" points="586 120 608.600857 120 608.600857 0 586 0"></polygon>
                    <path d="M488.844035,98.2301593 C497.624575,98.2301593 502.827858,92.652762 502.827858,84.0187912 C502.827858,76.4603185 497.94978,69.9853402 488.844035,69.9853402 L459.089568,69.9853402 L459.089568,98.2301593 L488.844035,98.2301593 Z M488.031022,48.2154994 C495.835947,48.2154994 500.714024,42.6381022 500.714024,34.9017125 C500.714024,27.527154 495.835947,21.7698407 488.031022,21.7698407 L459.089568,21.7698407 L459.089568,48.2154994 L488.031022,48.2154994 Z M436,0 L493.071703,0 C513.722232,0 524.289593,14.5712001 524.289593,30.5837276 C524.289593,45.6966749 515.834259,55.7719731 505.592102,58.1108816 C517.136886,60.089958 526.403427,72.5041647 526.403427,87.6151129 C526.403427,105.606717 515.509053,120 494.860331,120 L436,120 L436,0 Z" id="Fill-4"></path>
                    <polygon id="Fill-8" points="677 99.3096555 735.666653 21.0488281 677 21.0488281 677 0 767.403427 0 767.403427 16.8730469 705.109036 99.3096555 767.403427 99.3096555 767.403427 120 677 120"></polygon>
                </g>
            </g>
            <path d="M849.4,120.06 L799,120.06 L799,0 L848.32,0 C868.48,0 881.44,11.7 881.44,30.6 C881.44,45.72 871.18,55.98 860.38,58.14 C873.16,60.12 883.78,73.44 883.78,87.66 C883.78,107.64 870.82,120.06 849.4,120.06 Z M847.06,53.82 C862.54,53.82 870.64,44.1 870.64,31.68 C870.64,19.44 862.54,9.36 847.06,9.36 L809.26,9.36 L809.26,53.82 L847.06,53.82 Z M847.78,110.7 C863.62,110.7 872.98,101.52 872.98,86.94 C872.98,74.7 864.52,63.18 847.78,63.18 L809.26,63.18 L809.26,110.7 L847.78,110.7 Z M919.957333,120.06 L909.697333,120.06 L909.697333,0 L919.957333,0 L919.957333,120.06 Z M1036.23467,120.06 L1023.09467,120.06 L973.594667,63.54 L960.274667,78.12 L960.274667,120.06 L950.014667,120.06 L950.014667,0 L960.274667,0 L960.274667,65.7 L1018.23467,0 L1031.37467,0 L980.254667,57.24 L1036.23467,120.06 Z M1131.812,120.06 L1055.672,120.06 L1055.672,0 L1131.812,0 L1131.812,9.36 L1065.932,9.36 L1065.932,53.82 L1130.552,53.82 L1130.552,63.18 L1065.932,63.18 L1065.932,110.7 L1131.812,110.7 L1131.812,120.06 Z" id="BIKE"></path>
        </g>
    </g>
</svg>