<?xml version="1.0" encoding="UTF-8"?>
<svg width="1036px" height="121px" viewBox="0 0 1036 121" version="1.1" xmlns="http://www.w3.org/2000/svg" xmlns:xlink="http://www.w3.org/1999/xlink">
    <!-- Generator: Sketch 52.2 (67145) - http://www.bohemiancoding.com/sketch -->
    <title>HGO_blk_white_highres</title>
    <desc>Created with Sketch.</desc>
    <g id="HGO_blk_white_highres" stroke="none" stroke-width="1" fill="none" fill-rule="evenodd">
        <g id="Group" fill="#000000">
            <g id="HELBIZ">
                <g id="Header-V2-Copy-2">
                    <g id="Header">
                        <polygon id="Fill-1" points="77.4630899 0 77.4630899 47.1367884 24.0693662 47.1367884 24.0693662 0 0 0 0 120 24.0693662 120 24.0693662 69.6246689 77.4630899 69.6246689 77.4630899 120 101.703855 120 101.703855 0"></polygon>
                        <polygon id="Fill-2" points="169.895504 0 169.895504 120 248.998503 120 248.998503 97.8719576 193.692698 97.8719576 193.692698 69.9865061 247.82531 69.9865061 247.82531 48.0363836 193.692698 48.0363836 193.692698 21.9501224 248.998503 21.9501224 248.998503 0"></polygon>
                        <polygon id="Fill-3" points="317.190151 0 317.190151 120 384.992721 120 384.992721 97.5101204 339.897029 97.5101204 339.897029 0"></polygon>
                        <polygon id="Fill-6" points="586.460764 120 609.06162 120 609.06162 0 586.460764 0"></polygon>
                        <path d="M489.149284,98.2301593 C497.929824,98.2301593 503.133107,92.652762 503.133107,84.0187912 C503.133107,76.4603185 498.255029,69.9853402 489.149284,69.9853402 L459.394817,69.9853402 L459.394817,98.2301593 L489.149284,98.2301593 Z M488.336271,48.2154994 C496.141195,48.2154994 501.019273,42.6381022 501.019273,34.9017125 C501.019273,27.527154 496.141195,21.7698407 488.336271,21.7698407 L459.394817,21.7698407 L459.394817,48.2154994 L488.336271,48.2154994 Z M436.305249,0 L493.376951,0 C514.02748,0 524.594842,14.5712001 524.594842,30.5837276 C524.594842,45.6966749 516.139507,55.7719731 505.897351,58.1108816 C517.442135,60.089958 526.708676,72.5041647 526.708676,87.6151129 C526.708676,105.606717 515.814302,120 495.16558,120 L436.305249,120 L436.305249,0 Z" id="Fill-4"></path>
                        <polygon id="Fill-8" points="677.253269 99.3096555 735.919922 21.0488281 677.253269 21.0488281 677.253269 0 767.656696 0 767.656696 16.8730469 705.362305 99.3096555 767.656696 99.3096555 767.656696 120 677.253269 120"></polygon>
                    </g>
                </g>
            </g>
            <path d="M857.812,120.234 C825.274,120.234 799,95.874 799,60.03 C799,24.186 825.274,4.79616347e-14 857.812,4.79616347e-14 C876.952,4.79616347e-14 890.872,7.656 901.486,19.836 L894.004,25.23 C885.826,15.486 872.602,9.048 857.812,9.048 C830.494,9.048 809.44,29.754 809.44,60.03 C809.44,89.958 830.494,111.186 857.812,111.186 C873.298,111.186 885.478,103.53 891.916,97.092 L891.916,69.252 L848.068,69.252 L848.068,60.378 L901.834,60.378 L901.834,100.92 C891.568,112.404 876.082,120.234 857.812,120.234 Z M979.261422,120.06 C945.157422,120.06 922.885422,93.96 922.885422,60.03 C922.885422,26.1 945.157422,4.79616347e-14 979.261422,4.79616347e-14 C1013.19142,4.79616347e-14 1035.63742,26.1 1035.63742,60.03 C1035.63742,93.96 1013.19142,120.06 979.261422,120.06 Z M979.261422,111.012 C1007.10142,111.012 1025.19742,89.262 1025.19742,60.03 C1025.19742,30.45 1007.10142,9.048 979.261422,9.048 C951.073422,9.048 933.325422,30.45 933.325422,60.03 C933.325422,89.262 951.073422,111.012 979.261422,111.012 Z" id="GO"></path>
        </g>
    </g>
</svg>